<svg id="visual" viewBox="0 0 900 600" width="900" height="600" xmlns="http://www.w3.org/2000/svg" xmlns:xlink="http://www.w3.org/1999/xlink" version="1.1"><rect x="0" y="0" width="900" height="600" fill="#140021"></rect><path d="M488 0L423 0L423 40L632 40L632 80L657 80L657 120L662 120L662 160L638 160L638 200L444 200L444 240L476 240L476 280L581 280L581 320L648 320L648 360L588 360L588 400L581 400L581 440L471 440L471 480L575 480L575 520L464 520L464 560L518 560L518 600L0 600L0 560L0 560L0 520L0 520L0 480L0 480L0 440L0 440L0 400L0 400L0 360L0 360L0 320L0 320L0 280L0 280L0 240L0 240L0 200L0 200L0 160L0 160L0 120L0 120L0 80L0 80L0 40L0 40L0 0L0 0Z" fill="#9900ff"></path><path d="M271 0L387 0L387 40L326 40L326 80L350 80L350 120L304 120L304 160L363 160L363 200L373 200L373 240L464 240L464 280L446 280L446 320L354 320L354 360L381 360L381 400L271 400L271 440L374 440L374 480L405 480L405 520L381 520L381 560L288 560L288 600L0 600L0 560L0 560L0 520L0 520L0 480L0 480L0 440L0 440L0 400L0 400L0 360L0 360L0 320L0 320L0 280L0 280L0 240L0 240L0 200L0 200L0 160L0 160L0 120L0 120L0 80L0 80L0 40L0 40L0 0L0 0Z" fill="#7700c6"></path><path d="M298 0L244 0L244 40L198 40L198 80L174 80L174 120L299 120L299 160L147 160L147 200L167 200L167 240L160 240L160 280L114 280L114 320L277 320L277 360L234 360L234 400L229 400L229 440L178 440L178 480L280 480L280 520L156 520L156 560L151 560L151 600L0 600L0 560L0 560L0 520L0 520L0 480L0 480L0 440L0 440L0 400L0 400L0 360L0 360L0 320L0 320L0 280L0 280L0 240L0 240L0 200L0 200L0 160L0 160L0 120L0 120L0 80L0 80L0 40L0 40L0 0L0 0Z" fill="#560090"></path></svg>