<svg id="visual" viewBox="0 0 900 600" width="900" height="600" xmlns="http://www.w3.org/2000/svg" xmlns:xlink="http://www.w3.org/1999/xlink" version="1.1"><rect x="0" y="0" width="900" height="600" fill="#140021"></rect><path d="M0 310L129 310L129 304L257 304L257 293L386 293L386 266L514 266L514 250L643 250L643 315L771 315L771 317L900 317L900 251L900 0L900 0L771 0L771 0L643 0L643 0L514 0L514 0L386 0L386 0L257 0L257 0L129 0L129 0L0 0Z" fill="#560090"></path><path d="M0 196L129 196L129 252L257 252L257 179L386 179L386 227L514 227L514 193L643 193L643 218L771 218L771 237L900 237L900 195L900 0L900 0L771 0L771 0L643 0L643 0L514 0L514 0L386 0L386 0L257 0L257 0L129 0L129 0L0 0Z" fill="#7700c6"></path><path d="M0 101L129 101L129 143L257 143L257 74L386 74L386 67L514 67L514 92L643 92L643 85L771 85L771 90L900 90L900 95L900 0L900 0L771 0L771 0L643 0L643 0L514 0L514 0L386 0L386 0L257 0L257 0L129 0L129 0L0 0Z" fill="#9900ff"></path></svg>