<svg id="visual" viewBox="0 0 900 600" width="900" height="600" xmlns="http://www.w3.org/2000/svg" xmlns:xlink="http://www.w3.org/1999/xlink" version="1.1"><path d="M0 103L82 115L164 145L245 163L327 49L409 121L491 73L573 139L655 79L736 139L818 61L900 49L900 0L818 0L736 0L655 0L573 0L491 0L409 0L327 0L245 0L164 0L82 0L0 0Z" fill="#44bc98"></path><path d="M0 145L82 157L164 265L245 211L327 145L409 223L491 187L573 199L655 187L736 187L818 151L900 169L900 47L818 59L736 137L655 77L573 137L491 71L409 119L327 47L245 161L164 143L82 113L0 101Z" fill="#3bb093"></path><path d="M0 355L82 409L164 481L245 415L327 247L409 403L491 313L573 289L655 283L736 295L818 247L900 391L900 167L818 149L736 185L655 185L573 197L491 185L409 221L327 143L245 209L164 263L82 155L0 143Z" fill="#34a48e"></path><path d="M0 547L82 517L164 565L245 523L327 505L409 535L491 529L573 499L655 541L736 529L818 505L900 505L900 389L818 245L736 293L655 281L573 287L491 311L409 401L327 245L245 413L164 479L82 407L0 353Z" fill="#2f9888"></path><path d="M0 601L82 601L164 601L245 601L327 601L409 601L491 601L573 601L655 601L736 601L818 601L900 601L900 503L818 503L736 527L655 539L573 497L491 527L409 533L327 503L245 521L164 563L82 515L0 545Z" fill="#2c8d82"></path></svg>