<svg id="visual" viewBox="0 0 900 600" width="900" height="600" xmlns="http://www.w3.org/2000/svg" xmlns:xlink="http://www.w3.org/1999/xlink" version="1.1"><path d="M0 157L82 157L82 217L164 217L164 193L245 193L245 169L327 169L327 175L409 175L409 235L491 235L491 133L573 133L573 109L655 109L655 121L736 121L736 259L818 259L818 103L900 103L900 205L900 0L900 0L818 0L818 0L736 0L736 0L655 0L655 0L573 0L573 0L491 0L491 0L409 0L409 0L327 0L327 0L245 0L245 0L164 0L164 0L82 0L82 0L0 0Z" fill="#ff8880"></path><path d="M0 247L82 247L82 277L164 277L164 289L245 289L245 211L327 211L327 223L409 223L409 277L491 277L491 193L573 193L573 193L655 193L655 163L736 163L736 343L818 343L818 199L900 199L900 271L900 203L900 101L818 101L818 257L736 257L736 119L655 119L655 107L573 107L573 131L491 131L491 233L409 233L409 173L327 173L327 167L245 167L245 191L164 191L164 215L82 215L82 155L0 155Z" fill="#f6767e"></path><path d="M0 313L82 313L82 319L164 319L164 337L245 337L245 253L327 253L327 265L409 265L409 349L491 349L491 319L573 319L573 259L655 259L655 277L736 277L736 397L818 397L818 259L900 259L900 331L900 269L900 197L818 197L818 341L736 341L736 161L655 161L655 191L573 191L573 191L491 191L491 275L409 275L409 221L327 221L327 209L245 209L245 287L164 287L164 275L82 275L82 245L0 245Z" fill="#eb657e"></path><path d="M0 469L82 469L82 505L164 505L164 505L245 505L245 427L327 427L327 421L409 421L409 481L491 481L491 475L573 475L573 445L655 445L655 505L736 505L736 547L818 547L818 499L900 499L900 547L900 329L900 257L818 257L818 395L736 395L736 275L655 275L655 257L573 257L573 317L491 317L491 347L409 347L409 263L327 263L327 251L245 251L245 335L164 335L164 317L82 317L82 311L0 311Z" fill="#de547f"></path><path d="M0 601L82 601L82 601L164 601L164 601L245 601L245 601L327 601L327 601L409 601L409 601L491 601L491 601L573 601L573 601L655 601L655 601L736 601L736 601L818 601L818 601L900 601L900 601L900 545L900 497L818 497L818 545L736 545L736 503L655 503L655 443L573 443L573 473L491 473L491 479L409 479L409 419L327 419L327 425L245 425L245 503L164 503L164 503L82 503L82 467L0 467Z" fill="#d04380"></path></svg>