<svg id="visual" viewBox="0 0 900 600" width="900" height="600" xmlns="http://www.w3.org/2000/svg" xmlns:xlink="http://www.w3.org/1999/xlink" version="1.1"><path d="M0 133L13.7 128C27.3 123 54.7 113 82 114C109.3 115 136.7 127 163.8 139C191 151 218 163 245.2 168C272.3 173 299.7 171 327 163C354.3 155 381.7 141 409 141C436.3 141 463.7 155 491 153C518.3 151 545.7 133 573 138C600.3 143 627.7 171 654.8 186C682 201 709 203 736.2 193C763.3 183 790.7 161 818 161C845.3 161 872.7 183 886.3 194L900 205L900 0L886.3 0C872.7 0 845.3 0 818 0C790.7 0 763.3 0 736.2 0C709 0 682 0 654.8 0C627.7 0 600.3 0 573 0C545.7 0 518.3 0 491 0C463.7 0 436.3 0 409 0C381.7 0 354.3 0 327 0C299.7 0 272.3 0 245.2 0C218 0 191 0 163.8 0C136.7 0 109.3 0 82 0C54.7 0 27.3 0 13.7 0L0 0Z" fill="#81a9ec"></path><path d="M0 343L13.7 345C27.3 347 54.7 351 82 343C109.3 335 136.7 315 163.8 307C191 299 218 303 245.2 315C272.3 327 299.7 347 327 346C354.3 345 381.7 323 409 321C436.3 319 463.7 337 491 338C518.3 339 545.7 323 573 317C600.3 311 627.7 315 654.8 318C682 321 709 323 736.2 319C763.3 315 790.7 305 818 312C845.3 319 872.7 343 886.3 355L900 367L900 203L886.3 192C872.7 181 845.3 159 818 159C790.7 159 763.3 181 736.2 191C709 201 682 199 654.8 184C627.7 169 600.3 141 573 136C545.7 131 518.3 149 491 151C463.7 153 436.3 139 409 139C381.7 139 354.3 153 327 161C299.7 169 272.3 171 245.2 166C218 161 191 149 163.8 137C136.7 125 109.3 113 82 112C54.7 111 27.3 121 13.7 126L0 131Z" fill="#6496e7"></path><path d="M0 397L13.7 399C27.3 401 54.7 405 82 404C109.3 403 136.7 397 163.8 392C191 387 218 383 245.2 386C272.3 389 299.7 399 327 401C354.3 403 381.7 397 409 403C436.3 409 463.7 427 491 427C518.3 427 545.7 409 573 398C600.3 387 627.7 383 654.8 387C682 391 709 403 736.2 396C763.3 389 790.7 363 818 368C845.3 373 872.7 409 886.3 427L900 445L900 365L886.3 353C872.7 341 845.3 317 818 310C790.7 303 763.3 313 736.2 317C709 321 682 319 654.8 316C627.7 313 600.3 309 573 315C545.7 321 518.3 337 491 336C463.7 335 436.3 317 409 319C381.7 321 354.3 343 327 344C299.7 345 272.3 325 245.2 313C218 301 191 297 163.8 305C136.7 313 109.3 333 82 341C54.7 349 27.3 345 13.7 343L0 341Z" fill="#4483e1"></path><path d="M0 469L13.7 476C27.3 483 54.7 497 82 500C109.3 503 136.7 495 163.8 486C191 477 218 467 245.2 463C272.3 459 299.7 461 327 465C354.3 469 381.7 475 409 487C436.3 499 463.7 517 491 512C518.3 507 545.7 479 573 470C600.3 461 627.7 471 654.8 479C682 487 709 493 736.2 489C763.3 485 790.7 471 818 472C845.3 473 872.7 489 886.3 497L900 505L900 443L886.3 425C872.7 407 845.3 371 818 366C790.7 361 763.3 387 736.2 394C709 401 682 389 654.8 385C627.7 381 600.3 385 573 396C545.7 407 518.3 425 491 425C463.7 425 436.3 407 409 401C381.7 395 354.3 401 327 399C299.7 397 272.3 387 245.2 384C218 381 191 385 163.8 390C136.7 395 109.3 401 82 402C54.7 403 27.3 399 13.7 397L0 395Z" fill="#3a71c4"></path><path d="M0 601L13.7 601C27.3 601 54.7 601 82 601C109.3 601 136.7 601 163.8 601C191 601 218 601 245.2 601C272.3 601 299.7 601 327 601C354.3 601 381.7 601 409 601C436.3 601 463.7 601 491 601C518.3 601 545.7 601 573 601C600.3 601 627.7 601 654.8 601C682 601 709 601 736.2 601C763.3 601 790.7 601 818 601C845.3 601 872.7 601 886.3 601L900 601L900 503L886.3 495C872.7 487 845.3 471 818 470C790.7 469 763.3 483 736.2 487C709 491 682 485 654.8 477C627.7 469 600.3 459 573 468C545.7 477 518.3 505 491 510C463.7 515 436.3 497 409 485C381.7 473 354.3 467 327 463C299.7 459 272.3 457 245.2 461C218 465 191 475 163.8 484C136.7 493 109.3 501 82 498C54.7 495 27.3 481 13.7 474L0 467Z" fill="#305fa7"></path></svg>